<svg version="1.1" xmlns="http://www.w3.org/2000/svg" viewBox="0 0 1497 1310" class="currency-symbol" style="height:0.9em; width:auto; vertical-align:baseline; margin-right:2px;" fill="currentColor">
<path d="M0 0 C47.57709524 -0.05147818 95.15419254 -0.09922341 142.73130798 -0.12702942 C143.4381465 -0.12744359 144.14498501 -0.12785776 144.87324287 -0.12828448 C160.24354767 -0.13726819 175.61385275 -0.14557802 190.98415828 -0.15319599 C198.52435103 -0.15693722 206.0645437 -0.16082699 213.60473633 -0.16479492 C214.35498106 -0.1651872 215.10522578 -0.16557948 215.8782052 -0.16598364 C240.0916125 -0.17871336 264.30499848 -0.20120606 288.51839292 -0.22889166 C313.45041463 -0.25734642 338.38242459 -0.27569238 363.31446226 -0.28174497 C366.85519958 -0.28260913 370.39593685 -0.28358604 373.93667412 -0.28463173 C374.63337938 -0.284834 375.33008464 -0.28503627 376.04790218 -0.28524467 C387.15572216 -0.28875707 398.26350524 -0.30258101 409.37131032 -0.3204961 C420.60332933 -0.33838291 431.83531348 -0.3446101 443.06734962 -0.34050413 C449.12673636 -0.33860956 455.18601705 -0.34121144 461.24538422 -0.35761642 C552.49032668 -0.59187042 644.36061709 9.56868273 883 109 C883.71704102 109.47115234 884.43408203 109.94230469 885.17285156 110.42773438 C901.11295866 120.97237307 916.40587035 132.66474929 931 145 C931.50450684 145.42104004 932.00901367 145.84208008 932.52880859 146.27587891 C948.95086631 159.98783237 965.36192942 174.63710055 979.2421875 190.96484375 C981.3526414 193.40828038 983.55292879 195.75918821 985.75 198.125 C990.98522567 203.87271011 995.75734415 209.91135343 1000.49755859 216.06933594 C1002.03571744 218.04589755 1003.602011 219.99701634 1005.17578125 221.9453125 C1020.96901797 241.63315169 1034.6268344 263.02440536 1047 285 C1047.55606934 285.98194336 1048.11213867 286.96388672 1048.68505859 287.97558594 C1071.37463536 328.29130053 1105 389.58961808 1105 437 C1106.31750244 436.99333817 1107.63500488 436.98667633 1108.99243164 436.97981262 C1121.46671246 436.91874485 1133.94096258 436.87390479 1146.4153595 436.84456348 C1152.82710039 436.82897128 1159.23871969 436.80785177 1165.65039062 436.77368164 C1171.84904154 436.7408571 1178.04757619 436.72309864 1184.24630737 436.71536827 C1186.59994331 436.70986596 1188.95357358 436.69912249 1191.30715942 436.68280983 C1225.56700407 436.45500528 1251.74116921 444.99492326 1276.5625 469.1875 C1289.93908743 482.63084275 1299.35397993 498.98245066 1305.8125 516.75 C1306.07828857 517.46172363 1306.34407715 518.17344727 1306.61791992 518.90673828 C1312.90139659 537.23370984 1313.53875677 555.62788166 1313.25 574.8125 C1313.22987195 577.1738127 1313.21163251 579.53514228 1313.1953125 581.89648438 C1313.15189197 587.59803388 1313.08549636 593.29893393 1313 599 C1311.89190196 598.05746326 1310.78484711 597.11370002 1309.67822266 596.16943359 C1309.06161774 595.6440097 1308.44501282 595.11858582 1307.8097229 594.57723999 C1305.24899329 592.34547007 1302.82439561 589.97779973 1300.375 587.625 C1282.76450727 571.21554008 1261.29112201 563.91274044 1237.63891602 563.79467773 C1236.40894394 563.78477814 1235.17897186 563.77487854 1233.91172791 563.76467896 C1230.55688282 563.73859649 1227.2020602 563.71669147 1223.84717679 563.69667697 C1220.33444817 563.67472195 1216.82176148 563.64738008 1213.30906677 563.62062073 C1206.66528743 563.57082192 1200.02148466 563.52583589 1193.37765974 563.48259836 C1185.81050367 563.43311608 1178.2433897 563.37823891 1170.67627442 563.32291877 C1155.11755523 563.20929557 1139.55879725 563.10241417 1124 563 C1124.15856476 564.2334314 1124.31712952 565.46686279 1124.48049927 566.7376709 C1126.72035202 584.69016795 1126.15840426 602.99445677 1126.13037109 621.05615234 C1126.12467435 624.75689633 1126.12806426 628.4575684 1126.13380814 632.15830994 C1126.18671406 672.2378399 1126.18671406 672.2378399 1124 687 C1125.07946899 686.99333817 1126.15893799 686.98667633 1127.27111816 686.97981262 C1137.50853809 686.91865532 1147.74592033 686.87386262 1157.98348236 686.84456348 C1163.24508861 686.82899351 1168.50654587 686.80791612 1173.76806641 686.77368164 C1178.85798073 686.74077587 1183.94775291 686.72308205 1189.0377655 686.71536827 C1190.96716037 686.70988022 1192.89654861 686.69916581 1194.82588196 686.68280983 C1227.49606109 686.41718864 1253.07354805 696.29355135 1276.5625 719.1875 C1289.93908743 732.63084275 1299.35397993 748.98245066 1305.8125 766.75 C1306.07828857 767.46172363 1306.34407715 768.17344727 1306.61791992 768.90673828 C1312.90139659 787.23370984 1313.53875677 805.62788166 1313.25 824.8125 C1313.22987195 827.1738127 1313.21163251 829.53514228 1313.1953125 831.89648438 C1313.15189197 837.59803388 1313.08549636 843.29893393 1313 849 C1311.88964389 848.05607036 1310.78040587 847.11082541 1309.67163086 846.16503906 C1309.05380234 845.63879944 1308.43597382 845.11255981 1307.79942322 844.57037354 C1305.29851099 842.38780396 1302.94535265 840.06022579 1300.5625 837.75 C1282.20738732 820.59806511 1259.89661796 813.54007239 1235.07836914 813.56762695 C1233.65744696 813.55857915 1232.23653249 813.54824472 1230.81562805 813.53674316 C1227.01083105 813.50950051 1223.20618338 813.49993399 1219.40130162 813.49388909 C1215.4054509 813.48441879 1211.40970809 813.45820948 1207.41392517 813.43388367 C1199.87084542 813.39045052 1192.32778687 813.36176196 1184.7846207 813.33856028 C1176.18703371 813.31138324 1167.58955652 813.26748022 1158.99204838 813.22227156 C1141.32809049 813.12975794 1123.66410352 813.057926 1106 813 C1105.73626587 814.20402466 1105.47253174 815.40804932 1105.20080566 816.64855957 C1104.84554483 818.261168 1104.4901933 819.87375646 1104.13476562 821.48632812 C1103.96205139 822.27597961 1103.78933716 823.0656311 1103.61138916 823.87921143 C1101.85473382 831.83258826 1099.74956896 839.67295861 1097.5 847.5 C1097.28857361 848.23824005 1097.07714722 848.9764801 1096.85931396 849.73709106 C1079.37782846 910.45549284 1052.33503253 969.09353202 1014.56152344 1019.89599609 C1013.02175211 1021.97069111 1011.49801073 1024.05637572 1009.9765625 1026.14453125 C1003.10561412 1035.5141085 995.74030665 1044.3387795 988 1053 C987.17371094 1053.92683594 986.34742188 1054.85367187 985.49609375 1055.80859375 C984.02971915 1057.44328266 982.55856558 1059.07370078 981.08203125 1060.69921875 C979.71321896 1062.21184621 978.35601714 1063.7350767 977.01171875 1065.26953125 C972.17269398 1070.76469497 967.10351478 1076.00182899 961.9375 1081.1875 C961.2767749 1081.85281738 960.6160498 1082.51813477 959.93530273 1083.20361328 C956.0136682 1087.11310051 951.98063962 1090.8349875 947.78833008 1094.45239258 C945.60771613 1096.33947951 943.49330573 1098.2934558 941.375 1100.25 C935.73868831 1105.33474602 929.78885375 1109.96521375 923.78808594 1114.60595703 C922.0776076 1115.93949489 920.38391999 1117.29126354 918.6953125 1118.65234375 C848.87867016 1174.75592614 762.91519888 1208.60154532 458.56555438 1250.34819686 C452.37820247 1250.33493626 446.19085644 1250.33964655 440.00349426 1250.34190369 C429.34584435 1250.34345797 418.68825623 1250.33435366 408.03062439 1250.31719017 C396.88361846 1250.29928561 385.73663507 1250.28786186 374.58961487 1250.28463173 C373.89003655 1250.28442551 373.19045824 1250.28421929 372.46968058 1250.28400682 C368.91520785 1250.28299148 365.36073509 1250.28208745 361.80626231 1250.2812262 C336.79253865 1250.27496657 311.77884406 1250.25487248 286.76513672 1250.22631836 C262.50244295 1250.19865402 238.23975722 1250.17745803 213.97705078 1250.16479492 C213.22587769 1250.16440034 212.4747046 1250.16400576 211.70076869 1250.16359923 C204.15546673 1250.15964282 196.61016472 1250.15581551 189.06486265 1250.15208265 C173.70156654 1250.1444791 158.33827095 1250.13601536 142.97497559 1250.12702942 C142.26898262 1250.12661755 141.56298965 1250.12620568 140.83560296 1250.12578133 C93.89038965 1250.09829552 46.94519338 1250.05071084 0 1250 C0.77851318 1249.22543457 1.55702637 1248.45086914 2.35913086 1247.65283203 C40.35882394 1209.48100389 53.2888132 1151.55830928 59.25 1099.9375 C59.33317474 1099.22272491 59.41634949 1098.50794983 59.50204468 1097.77151489 C61.71699114 1078.46164669 62.15725339 1059.24603117 62.20532227 1039.82373047 C62.21492243 1037.33834681 62.22493369 1034.85296472 62.23532104 1032.36758423 C62.25661582 1027.05422369 62.27510313 1021.74086522 62.29092598 1016.42748642 C62.31380714 1008.7455877 62.34192273 1001.06371485 62.37124526 993.38183834 C62.41870015 980.91326182 62.4620229 968.4446746 62.50268555 955.97607422 C62.54215385 943.87645641 62.58360649 931.77684803 62.62768555 919.67724609 C62.63177196 918.5552553 62.63177196 918.5552553 62.63594092 917.41059802 C62.64962226 913.65748337 62.66334216 909.90436886 62.67708123 906.15125442 C62.79069801 875.10085586 62.89751297 844.05043739 63 813 C61.94558716 813.00666183 60.89117432 813.01332367 59.80480957 813.02018738 C49.80284885 813.08135645 39.80092675 813.12614291 29.7988205 813.15543652 C24.65828067 813.17100357 19.51789344 813.19207542 14.37744141 813.22631836 C9.40423613 813.25923482 4.4311764 813.27692012 -0.54212952 813.28463173 C-2.42686754 813.29011792 -4.31159881 813.30082848 -6.1962738 813.31719017 C-38.69734425 813.5877808 -64.21684382 803.56678273 -87.5625 780.8125 C-100.93908743 767.36915725 -110.35397993 751.01754934 -116.8125 733.25 C-117.07828857 732.53827637 -117.34407715 731.82655273 -117.61791992 731.09326172 C-123.90139659 712.76629016 -124.53875677 694.37211834 -124.25 675.1875 C-124.22987195 672.8261873 -124.21163251 670.46485772 -124.1953125 668.10351562 C-124.15189197 662.40196612 -124.08549636 656.70106607 -124 651 C-122.89516148 651.92995155 -121.79278149 652.86282435 -120.69140625 653.796875 C-119.77016968 654.57562988 -119.77016968 654.57562988 -118.83032227 655.37011719 C-117.09082874 656.91911796 -115.51203492 658.5355973 -113.9375 660.25 C-96.42424362 677.91962474 -73.31597475 686.08096262 -48.82250977 686.20532227 C-47.592555 686.21535499 -46.36260023 686.22538771 -45.09537411 686.23572445 C-42.45606415 686.25654204 -39.81681145 686.27568992 -37.17747498 686.29173279 C-33.39362898 686.31515451 -29.60985112 686.34322617 -25.8260498 686.3729248 C-16.73823719 686.44127337 -7.65036417 686.50138956 1.4375 686.5625 C21.753125 686.706875 42.06875 686.85125 63 687 C63 646.08 63 605.16 63 563 C34.84969605 563.15776223 34.84969605 563.15776223 6.69970703 563.36035156 C1.19506836 563.37841797 1.19506836 563.37841797 -1.400177 563.3817749 C-3.17276047 563.38782717 -4.94532986 563.40170247 -6.71780396 563.42230225 C-38.42193361 563.77162226 -64.61296055 553.2141054 -87.5 530.875 C-100.90207985 517.40454219 -110.34029418 501.05519919 -116.8125 483.25 C-117.21118286 482.18241455 -117.21118286 482.18241455 -117.61791992 481.09326172 C-123.90139659 462.76629016 -124.53875677 444.37211834 -124.25 425.1875 C-124.22987195 422.8261873 -124.21163251 420.46485772 -124.1953125 418.10351562 C-124.15189197 412.40196612 -124.08549636 406.70106607 -124 401 C-122.89190196 401.94253674 -121.78484711 402.88629998 -120.67822266 403.83056641 C-120.06161774 404.3559903 -119.44501282 404.88141418 -118.8097229 405.42276001 C-116.24899329 407.65452993 -113.82439561 410.02220027 -111.375 412.375 C-93.83539177 428.71840973 -72.39489802 436.08571806 -48.82250977 436.20532227 C-47.61204483 436.21522186 -46.4015799 436.22512146 -45.1544342 436.23532104 C-41.85330651 436.26140033 -38.55220159 436.28330663 -35.25103498 436.30332303 C-31.7943604 436.3252806 -28.3377284 436.35262121 -24.88108826 436.37937927 C-18.34355718 436.42917467 -11.8060023 436.47416195 -5.26842493 436.51740164 C2.17781488 436.56688686 9.62401194 436.62176292 17.07021034 436.67708123 C32.38010067 436.7906992 47.6900304 436.89758171 63 437 C62.91770968 406.55385027 62.82553187 376.10774544 62.71994839 345.6616682 C62.70743264 342.05016186 62.69499938 338.43865524 62.68261719 334.82714844 C62.68015119 334.10829836 62.6776852 333.38944828 62.67514448 332.64881487 C62.63564636 321.07784544 62.60279872 309.5068665 62.57250018 297.93586974 C62.54115525 286.0231061 62.50245183 274.11038197 62.45720994 262.19766295 C62.43206545 255.52328081 62.41032499 248.84892964 62.39665604 242.17451096 C62.40312405 195.09983828 62.40312405 195.09983828 58.1875 148.25 C58.01645752 146.97745361 57.84541504 145.70490723 57.66918945 144.39379883 C51.10637982 97.10564917 38.15727749 36.42640937 1.3984375 2.35546875 C0.70621094 1.68451172 0.70621094 1.68451172 0 1 C0 0.67 0 0.34 0 0 Z M251 63 C251 186.42 251 309.84 251 437 C462.53 437 674.06 437 892 437 C887.89696472 413.63648148 887.89696472 413.63648148 882.875 390.5 C882.68846863 389.71826416 882.50193726 388.93652832 882.30975342 388.13110352 C867.54324585 326.56577066 844.0504842 266.05157855 806 215 C805.60103516 214.46213867 805.20207031 213.92427734 804.79101562 213.37011719 C755.16354043 146.76061546 684.80332381 103.44449138 605 82 C603.87223145 81.69610352 602.74446289 81.39220703 601.58251953 81.07910156 C575.44658285 74.15435318 548.83799045 69.84580317 522 66.75 C520.72439209 66.59893799 519.44878418 66.44787598 518.13452148 66.29223633 C485.66660092 62.6656077 453.00140772 62.71553618 420.38174438 62.79743958 C414.98740439 62.80905466 409.59308311 62.80937776 404.19873047 62.81079102 C388.54914246 62.82117654 372.89957002 62.84909846 357.25 62.875 C322.1875 62.91625 287.125 62.9575 251 63 Z M251 563 C251 603.92 251 644.84 251 687 C466.82 687 682.64 687 905 687 C905.83183397 672.61879752 905.83183397 672.61879752 906.12939453 658.25 C906.13114685 657.43893799 906.13289917 656.62787598 906.13470459 655.79223633 C906.13899252 653.19480032 906.13623266 650.5974363 906.1328125 648 C906.1334893 646.14453112 906.13446242 644.28906233 906.13571167 642.43359375 C906.137171 638.57811626 906.13509174 634.72266222 906.13037109 630.8671875 C906.12467493 625.98313529 906.12796352 621.09913809 906.13394356 616.21508789 C906.13759737 612.39355065 906.13638873 608.57202595 906.13381577 604.75048828 C906.13315975 602.95198561 906.13392715 601.1534817 906.13629532 599.35498047 C906.1389027 596.8199573 906.1348715 594.28501715 906.12939453 591.75 C906.13141876 591.04399658 906.13344299 590.33799316 906.13552856 589.6105957 C906.10078061 580.71015441 905.46937273 571.91808195 905 563 C689.18 563 473.36 563 251 563 Z M251 813 C251 936.42 251 1059.84 251 1187 C284.45375 1187.061875 317.9075 1187.12375 352.375 1187.1875 C362.85169434 1187.21481201 373.32838867 1187.24212402 384.12255859 1187.27026367 C393.69660804 1187.28031057 393.69660804 1187.28031057 403.2706604 1187.28633118 C407.46219874 1187.28907278 411.65361752 1187.30009396 415.84512329 1187.31672668 C487.29318612 1187.58737853 557.89679194 1180.72683674 626 1158 C627.63775391 1157.45472656 627.63775391 1157.45472656 629.30859375 1156.8984375 C672.26733118 1142.42264477 711.80850095 1120.47633496 747 1092 C748.02738281 1091.18015625 749.05476563 1090.3603125 750.11328125 1089.515625 C758.49739974 1082.6686165 766.14671241 1075.06479418 773.8125 1067.4375 C774.34847809 1066.90678894 774.88445618 1066.37607788 775.43667603 1065.82928467 C782.42865806 1058.89045172 788.90111202 1051.75348575 795 1044 C795.95353177 1042.81958871 796.90782108 1041.63978843 797.86328125 1040.4609375 C845.14996989 980.88121816 871.8768188 909.20624579 887.5 835.4375 C887.6780719 834.6003244 887.8561438 833.7631488 888.03961182 832.90060425 C888.54362186 830.51712163 889.03928349 828.13208836 889.53125 825.74609375 C889.68081146 825.03598145 889.83037292 824.32586914 889.98446655 823.59423828 C890.72987761 819.91495218 891 816.80090336 891 813 C679.8 813 468.6 813 251 813 Z " transform="translate(154,30)"></path>
</svg>